<svg width="150" height="90" viewBox="0 0 150 90" fill="none" xmlns="http://www.w3.org/2000/svg">
<path d="M79.7103 46.9107L97.1951 36.7931V24.2833C97.1951 23.5707 96.8118 22.9119 96.1916 22.563L85.309 16.4296L76.4629 11.3096C75.6797 10.8567 74.717 10.8567 73.9339 11.3096L65.2859 16.3146V19.8999H69.6608V24.2035H63.1382C61.9533 24.2035 60.9906 23.2403 60.9906 22.0508V13.8297L73.1211 6.8093C74.4023 6.06885 75.9926 6.06885 77.2738 6.8093L97.1969 18.033V12.4694C97.1969 11.7661 96.8192 11.111 96.212 10.7602L79.7121 1.21228C76.9184 -0.404095 73.4766 -0.404095 70.6828 1.21228L53.1998 11.33V24.1942C53.1998 24.9272 53.6016 25.5953 54.2477 25.9386L65.0785 31.6897L73.9339 36.8135C74.717 37.2663 75.6797 37.2663 76.4629 36.8135L85.1109 31.8084V28.2231H80.736V23.9195H87.2585C88.4434 23.9195 89.4062 24.8827 89.4062 26.0722V34.2933L77.2757 41.3137C75.9945 42.0542 74.4041 42.0542 73.1229 41.3137L53.1998 30.2403V35.6555C53.1998 36.3588 53.5775 37.0139 54.1848 37.3646L70.6846 46.9126C73.4784 48.529 76.9202 48.529 79.714 46.9126L79.7103 46.9107ZM77.3701 32.0311H73.0211V16.0696H77.3701V32.0311Z" fill="white"/>
<path d="M22.8292 89.6553C22.3812 89.4289 22.0553 89.1338 21.8498 88.7719C21.6461 88.41 21.5443 88.0222 21.5443 87.6102H23.2032C23.2032 87.9109 23.3198 88.1521 23.5512 88.3321C23.7827 88.5121 24.1085 88.6012 24.5269 88.6012C24.9805 88.6012 25.3101 88.5344 25.5156 88.4026C25.7211 88.269 25.8248 88.0649 25.8248 87.7884C25.8248 87.6269 25.7711 87.4933 25.6656 87.3838C25.5582 87.2762 25.4045 87.1834 25.2027 87.1092C25.0009 87.0349 24.7325 86.957 24.3973 86.8809C23.8919 86.7584 23.4494 86.6174 23.0717 86.4559C22.694 86.2945 22.3737 86.0644 22.1145 85.7637C21.8553 85.4631 21.7239 85.0789 21.7239 84.6094C21.7239 84.19 21.8257 83.8226 22.0294 83.5052C22.233 83.1879 22.5404 82.9429 22.9532 82.7685C23.3643 82.5941 23.8715 82.5068 24.4714 82.5068C25.0713 82.5068 25.5952 82.5978 26.0118 82.7796C26.4284 82.9615 26.7412 83.2213 26.9486 83.5591C27.156 83.8968 27.2596 84.2939 27.2596 84.7523H25.6008C25.6008 84.5259 25.51 84.3348 25.3268 84.1826C25.1435 84.0304 24.8509 83.9543 24.451 83.9543C23.7401 83.9543 23.3828 84.177 23.3828 84.6206C23.3828 84.7709 23.4365 84.8989 23.5457 85.0066C23.6549 85.1142 23.8234 85.2051 24.053 85.2849C24.2826 85.3629 24.5899 85.439 24.9731 85.5132C25.7655 85.6746 26.3858 85.9326 26.8338 86.287C27.2819 86.6415 27.5059 87.1444 27.5059 87.7958C27.5059 88.2616 27.3818 88.6606 27.1337 88.9928C26.8857 89.3249 26.5394 89.5755 26.0932 89.7462C25.6471 89.9151 25.1268 90.0004 24.5344 90.0004C23.8475 90.0004 23.2791 89.8872 22.831 89.659L22.8292 89.6553Z" fill="white"/>
<path d="M37.7551 89.4786C37.1627 89.1446 36.6924 88.6918 36.3443 88.1184C35.9963 87.5449 35.8241 86.9195 35.8241 86.2403C35.8241 85.5611 35.9981 84.932 36.3443 84.3623C36.6924 83.7925 37.1608 83.3397 37.7551 83.0057C38.3476 82.6716 38.9956 82.5046 39.6973 82.5046C40.399 82.5046 41.0395 82.6716 41.6338 83.0057C42.2263 83.3397 42.6966 83.7925 43.0446 84.3623C43.3927 84.932 43.5649 85.5574 43.5649 86.2403C43.5649 86.9232 43.3908 87.5449 43.0446 88.1184C42.6966 88.6918 42.2282 89.1464 41.6338 89.4786C41.0414 89.8127 40.3953 89.9797 39.6973 89.9797C38.9993 89.9797 38.3494 89.8127 37.7551 89.4786ZM40.8137 88.1722C41.1506 87.981 41.4172 87.7175 41.6135 87.3798C41.8097 87.042 41.9097 86.6634 41.9097 86.244C41.9097 85.8246 41.8116 85.4405 41.6135 85.1027C41.4154 84.765 41.1488 84.5014 40.8137 84.3103C40.4767 84.1192 40.1046 84.0245 39.6973 84.0245C39.29 84.0245 38.916 84.1192 38.5772 84.3103C38.2383 84.5014 37.9718 84.765 37.7774 85.1027C37.5811 85.4405 37.4848 85.8209 37.4848 86.244C37.4848 86.6671 37.5829 87.042 37.781 87.3798C37.9773 87.7175 38.2458 87.981 38.5846 88.1722C38.9234 88.3633 39.2937 88.458 39.6991 88.458C40.1046 88.458 40.4804 88.3633 40.8155 88.1722H40.8137Z" fill="white"/>
<path d="M52.9462 82.6846H54.605V88.3391H57.5932V89.8182H52.9462V82.6846Z" fill="white"/>
<path d="M68.3147 89.6233C67.8389 89.3858 67.4649 89.0462 67.1927 88.6064C66.9206 88.1647 66.7854 87.6525 66.7854 87.0642V82.6846H68.4387V86.9436C68.4387 87.2368 68.4961 87.4985 68.6109 87.7304C68.7257 87.9605 68.8942 88.1424 69.1163 88.276C69.3385 88.4096 69.6033 88.4746 69.9143 88.4746C70.2253 88.4746 70.4808 88.4078 70.7011 88.276C70.9233 88.1424 71.0918 87.9605 71.2066 87.7304C71.3214 87.5003 71.3788 87.2368 71.3788 86.9436V82.6846H73.0376V87.0642C73.0376 87.6265 72.908 88.1294 72.6507 88.5711C72.3933 89.0128 72.0268 89.3598 71.5547 89.6066C71.0825 89.8553 70.5345 89.9796 69.9143 89.9796C69.2941 89.9796 68.7923 89.8609 68.3165 89.6233H68.3147Z" fill="white"/>
<path d="M84.063 84.1636H82.069V82.6846H87.6991V84.1636H85.7107V89.8182H84.063V84.1636Z" fill="white"/>
<path d="M96.8766 82.6846H98.5355V89.8182H96.8766V82.6846Z" fill="white"/>
<path d="M109.125 89.4786C108.533 89.1446 108.063 88.6918 107.715 88.1184C107.367 87.5449 107.194 86.9195 107.194 86.2403C107.194 85.5611 107.368 84.932 107.715 84.3623C108.063 83.7925 108.531 83.3397 109.125 83.0057C109.718 82.6716 110.366 82.5046 111.068 82.5046C111.769 82.5046 112.41 82.6716 113.004 83.0057C113.597 83.3397 114.067 83.7925 114.415 84.3623C114.763 84.932 114.935 85.5574 114.935 86.2403C114.935 86.9232 114.761 87.5449 114.415 88.1184C114.067 88.6918 113.599 89.1464 113.004 89.4786C112.412 89.8127 111.766 89.9797 111.068 89.9797C110.37 89.9797 109.72 89.8127 109.125 89.4786ZM112.184 88.1722C112.521 87.981 112.788 87.7175 112.984 87.3798C113.18 87.042 113.28 86.6634 113.28 86.244C113.28 85.8246 113.182 85.4405 112.984 85.1027C112.788 84.765 112.519 84.5014 112.184 84.3103C111.847 84.1192 111.475 84.0245 111.068 84.0245C110.66 84.0245 110.286 84.1192 109.948 84.3103C109.609 84.5014 109.342 84.765 109.148 85.1027C108.951 85.4405 108.855 85.8209 108.855 86.244C108.855 86.6671 108.953 87.042 109.151 87.3798C109.348 87.7175 109.616 87.981 109.955 88.1722C110.294 88.3633 110.664 88.458 111.069 88.458C111.475 88.458 111.851 88.3633 112.186 88.1722H112.184Z" fill="white"/>
<path d="M123.23 82.6846H124.679L128.069 87.1106V82.6846H129.728V89.8182H128.295L124.894 85.3866H124.888V89.8182H123.23V82.6846Z" fill="white"/>
<path d="M36.2206 62.7869C35.5152 62.0223 34.6617 61.4062 33.6823 60.9589C32.7047 60.5098 31.6013 60.2834 30.4016 60.2834C29.2018 60.2834 28.1391 60.5006 27.1542 60.9274C26.1692 61.3542 25.3027 61.9462 24.5825 62.6904C23.8605 63.4345 23.2903 64.2901 22.8885 65.2309C22.4867 66.1718 22.2831 67.1795 22.2831 68.2224C22.2831 69.2654 22.4756 70.2323 22.8552 71.1824C23.2329 72.1307 23.7846 72.9974 24.49 73.7564C25.1954 74.5135 26.0489 75.1259 27.0283 75.575C28.0058 76.0241 29.1167 76.2505 30.333 76.2505C31.5494 76.2505 32.5899 76.0297 33.5693 75.5973C34.5487 75.163 35.4152 74.5655 36.1428 73.8213C36.8723 73.0771 37.4406 72.2235 37.835 71.2808C38.2294 70.3399 38.4293 69.3322 38.4293 68.2893C38.4293 67.3057 38.2368 66.324 37.8572 65.3738C37.4777 64.4255 36.9278 63.5552 36.2206 62.7887V62.7869ZM34.8135 68.2206C34.8135 68.8311 34.7209 69.4398 34.5395 70.03C34.3562 70.622 34.0803 71.162 33.7156 71.6389C33.349 72.1196 32.8787 72.5074 32.3215 72.7932C31.7642 73.079 31.1014 73.2238 30.3553 73.2238C29.6091 73.2238 28.9945 73.0827 28.4372 72.8044C27.8818 72.5278 27.4078 72.1511 27.0338 71.6872C26.6617 71.2269 26.3747 70.6925 26.1859 70.1005C25.997 69.5104 25.9008 68.8942 25.9008 68.267C25.9008 67.6397 25.9933 67.0459 26.1748 66.4576C26.3562 65.8656 26.6376 65.3274 27.0116 64.8579C27.3856 64.3884 27.854 64.008 28.4039 63.7278C28.9537 63.4494 29.6128 63.3084 30.359 63.3084C31.057 63.3084 31.6938 63.442 32.2511 63.7036C32.8084 63.9672 33.2861 64.3402 33.6693 64.8115C34.0489 65.2792 34.3395 65.8136 34.5284 66.3982C34.7172 66.9809 34.8135 67.5952 34.8135 68.2206Z" fill="white"/>
<path d="M47.9345 60.3948H44.389V76.1355H55.9308V73.1551H47.9345V60.3948Z" fill="white"/>
<path d="M71.9787 61.447C70.7882 60.7492 69.2812 60.3948 67.502 60.3948H61.4756V76.1355H67.502C69.1312 76.1355 70.5679 75.807 71.775 75.1593C72.9784 74.5117 73.9264 73.5893 74.5929 72.4146C75.2594 71.2381 75.5982 69.8351 75.5982 68.241C75.5982 66.7972 75.2909 65.4629 74.6836 64.2771C74.0782 63.0968 73.1691 62.1429 71.9805 61.4451L71.9787 61.447ZM71.9805 68.2428C71.9805 69.1596 71.8046 70.0021 71.4566 70.7463C71.1067 71.496 70.5938 72.0917 69.931 72.5148C69.2701 72.9398 68.4517 73.1569 67.5001 73.1569H65.0192V63.3751H67.5001C68.4351 63.3751 69.2497 63.583 69.918 63.9931C70.5883 64.4033 71.1067 64.9841 71.4566 65.7171C71.8046 66.4446 71.9805 67.2945 71.9805 68.2428Z" fill="white"/>
<path d="M80.0251 63.3733H85.0684V76.1355H88.6157V63.3733H93.6368V60.3948H80.0251V63.3733Z" fill="white"/>
<path d="M102.794 69.4844H109.303V66.7527H102.794V63.3733H110.373V60.3948H99.2483V76.1355H110.581V73.1551H102.794V69.4844Z" fill="white"/>
<path d="M127.201 71.2361C126.988 71.6444 126.705 71.9895 126.361 72.2605C125.938 72.5927 125.476 72.8376 124.981 72.9935C123.83 73.3554 122.656 73.2923 121.677 72.8172C121.121 72.5481 120.64 72.177 120.249 71.7112C119.86 71.2509 119.558 70.7128 119.353 70.1133C119.147 69.5158 119.044 68.8885 119.044 68.2446C119.044 67.6619 119.131 67.0717 119.305 66.4927C119.481 65.9082 119.753 65.37 120.118 64.893C120.486 64.4124 120.954 64.0246 121.51 63.7388C122.449 63.2581 123.658 63.1746 124.916 63.5031C125.418 63.6348 125.888 63.8668 126.312 64.1916C126.657 64.4569 126.951 64.8132 127.186 65.2531L127.279 65.4275L129.975 63.6014L129.888 63.4567C129.345 62.5603 128.555 61.8125 127.538 61.2372C126.424 60.6044 125.089 60.2852 123.571 60.2852C122.293 60.2852 121.14 60.5134 120.138 60.9607C119.136 61.4098 118.275 62.0166 117.577 62.7682C116.879 63.5179 116.341 64.366 115.976 65.2846C115.611 66.2032 115.428 67.1534 115.428 68.111C115.428 69.0685 115.624 70.1059 116.011 71.0709C116.398 72.0359 116.954 72.9174 117.659 73.6913C118.364 74.4633 119.218 75.0905 120.197 75.5545C121.175 76.0184 122.271 76.2522 123.415 76.2522C124.313 76.2522 125.242 76.1075 126.168 75.8198C127.086 75.5322 127.921 75.1109 128.649 74.5653C129.286 74.0903 129.769 73.5205 130.091 72.8747L130.165 72.7244L127.284 71.0765L127.199 71.2398L127.201 71.2361Z" fill="white"/>
<path d="M146.25 60.3948V66.5949H139.406V60.3948H135.86V76.1355H139.406V69.5734H146.25V76.1355H149.798V60.3948H146.25Z" fill="white"/>
<path d="M10.1525 70.5179L10.1155 70.5755L9.96925 70.8H13.6888C13.4036 71.5516 12.9167 72.1566 12.2391 72.6038C11.4893 73.0993 10.5228 73.3498 9.36754 73.3498C7.80865 73.3498 6.54227 72.8915 5.6036 71.9896C4.66679 71.0895 4.19097 69.9315 4.19097 68.5452C4.19097 67.159 4.65938 65.9713 5.58324 65.0564C6.5071 64.1415 7.70496 63.6775 9.14352 63.6775C10.0359 63.6775 10.8561 63.8687 11.5818 64.2473C12.2502 64.5962 13.0741 65.4665 13.4981 66.2701L13.6036 66.4686L16.2289 64.1656L16.1493 64.0376C15.4643 62.9389 14.4923 62.0463 13.2592 61.3857C12.028 60.7269 10.6506 60.3928 9.16573 60.3928C6.79962 60.3928 4.78713 61.1889 3.1838 62.7589C1.58047 64.3308 0.7677 66.2775 0.7677 68.5452C0.7677 70.813 1.58788 72.7356 3.20787 74.2981C4.82416 75.8607 6.89034 76.6531 9.34717 76.6531C11.654 76.6531 13.5629 75.9535 15.0255 74.5728C16.4899 73.1902 17.2324 71.3604 17.2324 69.1354V67.7769H11.7318L10.1544 70.5161L10.1525 70.5179Z" fill="white"/>
</svg>
